<?xml version="1.0" encoding="utf-8"?>
<!-- Generator: Adobe Illustrator 27.7.0, SVG Export Plug-In . SVG Version: 6.00 Build 0)  -->
<svg version="1.1" id="Layer_1" xmlns="http://www.w3.org/2000/svg" xmlns:xlink="http://www.w3.org/1999/xlink" x="0px" y="0px"
	 viewBox="0 0 176 176" style="enable-background:new 0 0 176 176;" xml:space="preserve">
<style type="text/css">
	.st0{opacity:0.5;fill:#0078AD;}
	.st1{fill:#0078AD;}
	.st2{fill:#FFFFFF;}
	.st3{fill:#FFD100;}
</style>
<g>
	<circle class="st0" cx="88" cy="88" r="88"/>
	<circle class="st1" cx="88" cy="88" r="66.8"/>
	<path class="st2" d="M104.1,63.8v-7.7c0-3.9-3.1-7-7-7H49.5c-3.9,0-7,3.1-7,7v63c0,3.9,3.1,7,7,7H97c3.9,0,7-3.1,7-7v-7.7
		C93.6,108.5,86,98.9,86,87.6S93.6,66.7,104.1,63.8z M54.9,85.2h22.8c1.3,0,2.4,1.1,2.4,2.4c0,1.3-1.1,2.4-2.4,2.4H54.9
		c-1.3,0-2.4-1.1-2.4-2.4C52.6,86.3,53.6,85.2,54.9,85.2z M52.6,74.9c0-1.3,1.1-2.4,2.4-2.4h25.8c1.3,0,2.4,1.1,2.4,2.4
		c0,1.3-1.1,2.4-2.4,2.4H54.9C53.6,77.2,52.6,76.2,52.6,74.9z M54.9,98h25.8c1.3,0,2.4,1,2.4,2.3c0,1.3-1.1,2.4-2.4,2.4H54.9
		c-1.3,0-2.4-1-2.4-2.4C52.6,99,53.6,98,54.9,98z M91.6,110.7c1.3,0,2.4,1.1,2.4,2.4s-1.1,2.4-2.4,2.4H54.9c-1.3,0-2.4-1.1-2.4-2.4
		s1.1-2.4,2.4-2.4H91.6z M91.6,64.5H54.9c-1.3,0-2.4-1-2.4-2.4c0-1.3,1.1-2.3,2.4-2.3h36.7c1.3,0,2.4,1,2.4,2.3
		C94,63.5,92.9,64.5,91.6,64.5z"/>
	<g>
		<path class="st3" d="M126.3,99.8c2.6-3.4,4.2-7.6,4.2-12.2c0-11-8.9-19.9-19.9-19.9c-11,0-19.9,8.9-19.9,19.9
			c0,11,8.9,19.9,19.9,19.9c4.6,0,8.8-1.6,12.2-4.2l9.8,9.8c0.5,0.5,1.1,0.7,1.8,0.7c0.6,0,1.3-0.2,1.8-0.7c1-1,1-2.5,0-3.5
			L126.3,99.8z M95.7,87.6c0-8.2,6.7-14.9,14.9-14.9c8.2,0,14.9,6.7,14.9,14.9c0,8.2-6.7,14.9-14.9,14.9
			C102.4,102.5,95.7,95.8,95.7,87.6z"/>
		<path class="st3" d="M115.1,81.2l-6.2,7.4l-2.9-3c-1-1-2.5-1-3.5-0.1c-1,1-1,2.5-0.1,3.5l4.9,5c0.5,0.5,1.1,0.8,1.8,0.8
			c0,0,0.1,0,0.1,0c0.7,0,1.4-0.3,1.8-0.9l8-9.5c0.9-1.1,0.7-2.6-0.3-3.5C117.6,80.1,116,80.2,115.1,81.2z"/>
	</g>
</g>
</svg>
